<svg width="277" height="83" viewBox="0 0 277 83" fill="none" xmlns="http://www.w3.org/2000/svg">
<path d="M9.21875 39.4375C8.96875 39.2292 8.48958 38.875 7.78125 38.375C7.11458 37.8333 6.40625 37.2708 5.65625 36.6875C4.90625 36.0625 4.19792 35.5 3.53125 35C2.86458 34.5 2.40625 34.1458 2.15625 33.9375C1.78125 33.6458 1.46875 33.3958 1.21875 33.1875C1.01042 32.9375 0.90625 32.5417 0.90625 32C1.53125 32 2.07292 32.1667 2.53125 32.5C2.98958 32.7917 3.42708 33.125 3.84375 33.5C4.30208 33.8333 4.76042 34.1458 5.21875 34.4375C5.71875 34.7292 6.28125 34.875 6.90625 34.875C6.90625 34.4583 6.90625 33.7292 6.90625 32.6875C6.94792 31.6042 6.96875 30.4583 6.96875 29.25C7.01042 28.0417 7.03125 26.9167 7.03125 25.875C7.07292 24.7917 7.09375 24.0208 7.09375 23.5625C7.09375 23.3958 7.05208 23 6.96875 22.375C6.92708 21.7083 6.86458 21.0208 6.78125 20.3125C6.73958 19.5625 6.67708 18.875 6.59375 18.25C6.55208 17.625 6.53125 17.2292 6.53125 17.0625C6.53125 16.9792 6.55208 16.75 6.59375 16.375C6.63542 15.9583 6.69792 15.5417 6.78125 15.125C6.86458 14.7083 6.92708 14.3125 6.96875 13.9375C7.05208 13.5625 7.09375 13.3333 7.09375 13.25V10.4375C7.09375 10.3542 7.05208 10.1042 6.96875 9.6875C6.92708 9.27083 6.86458 8.8125 6.78125 8.3125C6.69792 7.8125 6.63542 7.35417 6.59375 6.9375C6.55208 6.52083 6.53125 6.25 6.53125 6.125C6.53125 5.95833 6.55208 5.66667 6.59375 5.25C6.63542 4.83333 6.67708 4.39583 6.71875 3.9375C6.76042 3.47917 6.80208 3.04167 6.84375 2.625C6.92708 2.20833 7.01042 1.9375 7.09375 1.8125C7.71875 1.27083 8.19792 0.9375 8.53125 0.8125C8.86458 0.6875 9.34375 0.625 9.96875 0.625C11.7188 0.625 13.4479 0.958333 15.1562 1.625C16.8646 2.25 18.4896 3.125 20.0312 4.25C21.5729 5.375 22.9688 6.6875 24.2188 8.1875C25.5104 9.6875 26.6146 11.2708 27.5312 12.9375C28.4896 14.6042 29.2396 16.3333 29.7812 18.125C30.3229 19.875 30.5938 21.5625 30.5938 23.1875C30.5938 25.0625 30.1979 27 29.4062 29C28.6562 31 27.6146 32.8125 26.2812 34.4375C24.9479 36.0625 23.3854 37.3958 21.5938 38.4375C19.8438 39.4792 17.9688 40 15.9688 40C15.3854 40 14.8229 39.9583 14.2812 39.875C13.7396 39.7917 13.1771 39.7083 12.5938 39.625C12.0521 39.5417 11.4896 39.4792 10.9062 39.4375C10.3646 39.3542 9.80208 39.3542 9.21875 39.4375ZM10.9062 36.6875C10.9062 36.7292 10.9688 36.8333 11.0938 37C11.2188 37.125 11.3438 37.2083 11.4688 37.25C11.5521 37.2917 11.7188 37.375 11.9688 37.5C12.2604 37.5833 12.5729 37.6875 12.9062 37.8125C13.2812 37.9375 13.6354 38.0417 13.9688 38.125C14.3021 38.2083 14.5312 38.2708 14.6562 38.3125H15.0312C16.0729 38.3125 17.1354 38.0625 18.2188 37.5625C19.3021 37.0208 20.3438 36.3333 21.3438 35.5C22.3438 34.6667 23.2604 33.7083 24.0938 32.625C24.9271 31.5 25.6562 30.3542 26.2812 29.1875C26.9062 28.0208 27.4062 26.8542 27.7812 25.6875C28.1562 24.5208 28.3438 23.4375 28.3438 22.4375C28.3438 21.2292 28.0938 19.9167 27.5938 18.5C27.0938 17.0833 26.4062 15.6667 25.5312 14.25C24.6979 12.8333 23.7188 11.4792 22.5938 10.1875C21.4688 8.85417 20.2604 7.6875 18.9688 6.6875C17.7188 5.6875 16.4271 4.89583 15.0938 4.3125C13.8021 3.6875 12.5312 3.375 11.2812 3.375C10.9896 3.375 10.6979 3.39583 10.4062 3.4375C10.1146 3.4375 9.84375 3.47917 9.59375 3.5625C9.34375 3.64583 9.11458 3.79167 8.90625 4C8.73958 4.20833 8.65625 4.5 8.65625 4.875C8.65625 5.58333 8.65625 6.29167 8.65625 7C8.65625 7.70833 8.67708 8.4375 8.71875 9.1875C8.80208 9.89583 8.90625 10.6042 9.03125 11.3125C9.19792 11.9792 9.44792 12.625 9.78125 13.25L10.9062 36.6875Z" fill="black"/>
<path d="M47.3438 32.3125C46.7188 33.0625 45.9896 33.8542 45.1562 34.6875C44.3646 35.5208 43.4896 36.2917 42.5312 37C41.6146 37.7083 40.6354 38.3125 39.5938 38.8125C38.5938 39.2708 37.5521 39.5 36.4688 39.5C34.2604 39.5 33.1562 38.4375 33.1562 36.3125C33.1562 35.4375 33.5104 34.2917 34.2188 32.875C34.9688 31.4167 35.9271 29.8958 37.0938 28.3125C38.2604 26.7292 39.5521 25.2083 40.9688 23.75C42.3854 22.25 43.8021 21.0208 45.2188 20.0625C46.6354 19.0625 47.9271 18.4375 49.0938 18.1875C50.3021 17.9375 51.2812 18.2917 52.0312 19.25C52.0312 20.375 51.9479 21.5 51.7812 22.625C51.6146 23.75 51.4479 24.875 51.2812 26C51.1146 27.0833 50.9479 28.1667 50.7812 29.25C50.6146 30.3333 50.5312 31.4375 50.5312 32.5625C50.5312 32.8125 50.5521 33.2083 50.5938 33.75C50.6771 34.25 50.7812 34.7708 50.9062 35.3125C51.0729 35.8125 51.2812 36.2708 51.5312 36.6875C51.7812 37.0625 52.1146 37.25 52.5312 37.25C53.5312 37.25 54.3438 37.125 54.9688 36.875C55.6354 36.625 56.1979 36.3333 56.6562 36C57.1562 35.625 57.5729 35.2083 57.9062 34.75C58.2812 34.2917 58.6562 33.8333 59.0312 33.375C59.4479 32.9167 59.9062 32.4792 60.4062 32.0625C60.9062 31.6458 61.5521 31.3125 62.3438 31.0625C62.3438 31.0625 62.3438 31.125 62.3438 31.25C62.3438 31.375 62.3438 31.4792 62.3438 31.5625C62.3438 32.6042 62.0312 33.6458 61.4062 34.6875C60.7812 35.6875 59.9896 36.5833 59.0312 37.375C58.0729 38.1667 56.9896 38.8125 55.7812 39.3125C54.6146 39.7708 53.4688 40 52.3438 40C51.3854 40 50.6146 39.7292 50.0312 39.1875C49.4479 38.6458 48.9688 38 48.5938 37.25C48.2604 36.5 48.0104 35.6875 47.8438 34.8125C47.6771 33.8958 47.5104 33.0625 47.3438 32.3125ZM48.4688 24.125C48.8854 22.75 49.0312 21.8125 48.9062 21.3125C48.8229 20.8125 48.5312 20.625 48.0312 20.75C47.5312 20.8333 46.8854 21.1875 46.0938 21.8125C45.3021 22.3958 44.4479 23.125 43.5312 24C42.6146 24.8333 41.6979 25.7708 40.7812 26.8125C39.8646 27.8542 39.0104 28.8542 38.2188 29.8125C37.4271 30.7292 36.7812 31.5625 36.2812 32.3125C35.7812 33.0625 35.4688 33.6042 35.3438 33.9375C35.0938 34.8958 35.0521 35.625 35.2188 36.125C35.4271 36.625 35.7188 36.9792 36.0938 37.1875C36.5104 37.3542 36.9479 37.375 37.4062 37.25C37.9062 37.125 38.3229 36.9375 38.6562 36.6875C39.3646 36.0625 40.2604 35.2292 41.3438 34.1875C42.4271 33.1042 43.4688 31.9583 44.4688 30.75C45.5104 29.5417 46.4062 28.3542 47.1562 27.1875C47.9062 25.9792 48.3438 24.9583 48.4688 24.125Z" fill="black"/>
<path d="M68.3438 37.8125C67.9271 36.8958 67.3646 35.7083 66.6562 34.25C65.9896 32.75 65.3021 31.2292 64.5938 29.6875C63.8854 28.1042 63.2188 26.625 62.5938 25.25C62.0104 23.8333 61.5521 22.7292 61.2188 21.9375C61.2604 21.7708 61.4062 21.5625 61.6562 21.3125C61.9479 21.0208 62.1771 20.8542 62.3438 20.8125C62.8021 20.7292 63.2812 21.0208 63.7812 21.6875C64.2812 22.3125 64.7812 23.1667 65.2812 24.25C65.7812 25.2917 66.3021 26.4583 66.8438 27.75C67.3854 29 67.8854 30.1875 68.3438 31.3125C68.8438 32.3958 69.3021 33.3125 69.7188 34.0625C70.1354 34.7708 70.4896 35.125 70.7812 35.125C70.8229 35.125 70.8646 35.125 70.9062 35.125C70.9479 35.0833 71.0104 35.0625 71.0938 35.0625C71.0938 34.9375 71.1562 34.75 71.2812 34.5C71.4062 34.2083 71.5104 33.9167 71.5938 33.625C71.7188 33.3333 71.8229 33.0625 71.9062 32.8125C72.0312 32.5625 72.1146 32.3958 72.1562 32.3125C72.1979 32.2292 72.3229 31.9792 72.5312 31.5625C72.7812 31.1042 73.0312 30.625 73.2812 30.125C73.5312 29.625 73.7604 29.1667 73.9688 28.75C74.1771 28.2917 74.3021 28.0208 74.3438 27.9375C74.4271 27.7708 74.5521 27.4167 74.7188 26.875C74.9271 26.3333 75.1562 25.7083 75.4062 25C75.6979 24.2917 75.9896 23.5417 76.2812 22.75C76.5729 21.9583 76.8438 21.2083 77.0938 20.5C77.3438 19.7917 77.5521 19.1875 77.7188 18.6875C77.9271 18.1458 78.0729 17.7708 78.1562 17.5625C78.4479 16.2292 78.8854 15.1458 79.4688 14.3125C80.0938 13.4375 80.6146 12.9167 81.0312 12.75C81.4896 12.5417 81.7188 12.7292 81.7188 13.3125C81.7604 13.8958 81.3021 14.9375 80.3438 16.4375C80.2604 16.7708 80.0729 17.3333 79.7812 18.125C79.5312 18.875 79.2604 19.6875 78.9688 20.5625C78.6771 21.4375 78.3854 22.2708 78.0938 23.0625C77.8438 23.8125 77.6771 24.3542 77.5938 24.6875C77.4271 25.1875 77.1979 25.9167 76.9062 26.875C76.6562 27.7917 76.3438 28.8333 75.9688 30C75.6354 31.125 75.2604 32.2708 74.8438 33.4375C74.4271 34.6042 73.9688 35.6875 73.4688 36.6875C73.0104 37.6458 72.5312 38.4375 72.0312 39.0625C71.5312 39.6875 71.0312 40 70.5312 40C70.2812 40 70.0312 39.9167 69.7812 39.75C69.5729 39.5833 69.3646 39.3958 69.1562 39.1875C68.9896 38.9792 68.8229 38.75 68.6562 38.5C68.5312 38.2083 68.4271 37.9792 68.3438 37.8125Z" fill="black"/>
<path d="M88.3438 31.1875C88.3438 30.1042 88.4062 29.0417 88.5312 28C88.6562 26.9167 88.7812 25.8542 88.9062 24.8125C89.0729 23.7292 89.2188 22.6667 89.3438 21.625C89.4688 20.5417 89.5312 19.4375 89.5312 18.3125C89.5312 18.0625 89.4688 17.7917 89.3438 17.5C89.2604 17.1667 89.0104 17 88.5938 17C88.0521 17 87.6979 17.0417 87.5312 17.125C87.3646 17.2083 87.2396 17.3125 87.1562 17.4375C87.1146 17.5625 87.0104 17.7083 86.8438 17.875C86.7188 18.0417 86.4062 18.2083 85.9062 18.375H85.5938C84.7188 18.375 84.2812 17.9167 84.2812 17C84.2812 16.75 84.5521 16.3542 85.0938 15.8125C85.6771 15.2708 86.3438 14.7708 87.0938 14.3125C87.8438 13.8125 88.5521 13.3958 89.2188 13.0625C89.8854 12.6875 90.3229 12.5625 90.5312 12.6875C90.6146 12.6875 90.7396 12.7708 90.9062 12.9375C91.0729 13.0625 91.2396 13.2292 91.4062 13.4375C91.5729 13.6042 91.7188 13.7708 91.8438 13.9375C92.0104 14.1042 92.1146 14.2292 92.1562 14.3125C92.1562 14.3958 92.1562 14.5625 92.1562 14.8125C92.1562 15.0625 92.1562 15.3333 92.1562 15.625C92.1979 15.9167 92.2188 16.2083 92.2188 16.5C92.2188 16.75 92.2188 16.9375 92.2188 17.0625C92.2188 18.2708 92.1354 19.4792 91.9688 20.6875C91.8021 21.8542 91.5938 23.0417 91.3438 24.25C91.1354 25.4583 90.9479 26.6667 90.7812 27.875C90.6146 29.0833 90.5312 30.2917 90.5312 31.5C90.5312 31.7083 90.5521 32.125 90.5938 32.75C90.6354 33.375 90.7188 34.0208 90.8438 34.6875C91.0104 35.3542 91.2396 35.9583 91.5312 36.5C91.8229 37 92.2188 37.25 92.7188 37.25C93.7188 37.25 94.4688 37.125 94.9688 36.875C95.4688 36.5833 95.9062 36.2708 96.2812 35.9375C96.6562 35.6042 97.0521 35.3125 97.4688 35.0625C97.9271 34.7708 98.5521 34.625 99.3438 34.625C99.3438 36.375 98.6979 37.7083 97.4062 38.625C96.1146 39.5417 94.4688 40 92.4688 40C91.4271 40 90.6354 39.6667 90.0938 39C89.5521 38.3333 89.1354 37.5417 88.8438 36.625C88.5938 35.6667 88.4479 34.6875 88.4062 33.6875C88.3646 32.6875 88.3438 31.8542 88.3438 31.1875ZM88.9688 5.0625C88.9688 4.60417 89.0312 4.25 89.1562 4C89.3229 3.75 89.6771 3.625 90.2188 3.625C90.5938 3.625 90.8438 3.77083 90.9688 4.0625C91.1354 4.3125 91.2188 4.64583 91.2188 5.0625C91.2188 5.4375 91.1354 5.77083 90.9688 6.0625C90.8438 6.3125 90.5938 6.4375 90.2188 6.4375C89.6771 6.4375 89.3229 6.33333 89.1562 6.125C89.0312 5.875 88.9688 5.52083 88.9688 5.0625Z" fill="black"/>
<path d="M102.781 36.125C101.99 36.125 101.323 35.875 100.781 35.375C100.24 34.875 99.7812 34.2708 99.4062 33.5625C99.0729 32.8542 98.8021 32.1042 98.5938 31.3125C98.4271 30.5208 98.3438 29.8333 98.3438 29.25C98.3438 27.9583 98.5729 26.625 99.0312 25.25C99.5312 23.8333 100.177 22.5 100.969 21.25C101.802 20 102.74 18.875 103.781 17.875C104.865 16.8333 105.99 16.0208 107.156 15.4375C107.656 15.1875 108.094 15.0625 108.469 15.0625C108.885 15.0208 109.24 15 109.531 15C109.823 14.9583 110.031 14.8333 110.156 14.625C110.323 14.375 110.406 13.9167 110.406 13.25V2.8125C110.406 2.47917 110.594 2.14583 110.969 1.8125C111.344 1.4375 111.698 1.25 112.031 1.25C112.24 1.25 112.406 1.35417 112.531 1.5625C112.698 1.72917 112.823 1.9375 112.906 2.1875C112.99 2.4375 113.052 2.70833 113.094 3C113.135 3.29167 113.156 3.5 113.156 3.625C113.156 8.33333 113.094 12.9792 112.969 17.5625C112.844 22.1042 112.781 26.7917 112.781 31.625C113.115 31.625 113.448 31.5625 113.781 31.4375C114.115 31.3125 114.469 31.1667 114.844 31C115.219 30.8333 115.573 30.6667 115.906 30.5C116.281 30.3333 116.635 30.2083 116.969 30.125C116.969 30.1667 116.969 30.25 116.969 30.375C117.01 30.5 117.031 30.6042 117.031 30.6875C117.031 31.2708 116.823 31.75 116.406 32.125C116.031 32.4583 115.573 32.7708 115.031 33.0625C114.531 33.3542 114.031 33.6458 113.531 33.9375C113.073 34.2292 112.76 34.6042 112.594 35.0625C112.552 35.1458 112.51 35.4375 112.469 35.9375C112.427 36.4375 112.344 37 112.219 37.625C112.094 38.25 111.906 38.8125 111.656 39.3125C111.406 39.7708 111.094 40 110.719 40C110.135 40 109.74 39.8333 109.531 39.5C109.365 39.1667 109.302 38.7708 109.344 38.3125C109.385 37.8542 109.448 37.4167 109.531 37C109.656 36.5833 109.719 36.2917 109.719 36.125H102.781ZM100.531 29.25C100.531 30.625 100.969 31.7708 101.844 32.6875C102.719 33.5625 103.844 34 105.219 34C105.51 34 105.844 34 106.219 34C106.635 34 107.052 33.9792 107.469 33.9375C107.885 33.8542 108.26 33.7292 108.594 33.5625C108.927 33.3958 109.177 33.1458 109.344 32.8125C109.26 31.6875 109.24 30.625 109.281 29.625C109.365 28.5833 109.448 27.5625 109.531 26.5625C109.615 25.5208 109.698 24.5 109.781 23.5C109.865 22.4583 109.906 21.375 109.906 20.25C109.906 19.75 109.802 19.3542 109.594 19.0625C109.427 18.7708 109.073 18.625 108.531 18.625C107.406 18.625 106.344 19 105.344 19.75C104.385 20.4583 103.531 21.375 102.781 22.5C102.073 23.5833 101.51 24.75 101.094 26C100.719 27.2083 100.531 28.2917 100.531 29.25Z" fill="black"/>
<path d="M157.281 58.75C157.281 57.8333 157.302 56.8542 157.344 55.8125C157.385 54.7708 157.49 53.7083 157.656 52.625C157.865 51.5833 158.156 50.5625 158.531 49.5625C158.906 48.6042 159.406 47.75 160.031 47C160.448 46.5417 161.115 45.9167 162.031 45.125C162.99 44.375 163.969 43.5625 164.969 42.6875C165.969 41.8125 166.844 40.9583 167.594 40.125C168.385 39.3333 168.781 38.625 168.781 38C168.781 37.875 168.76 37.6458 168.719 37.3125C168.719 36.9792 168.719 36.75 168.719 36.625C168.219 36.5417 167.49 36.4375 166.531 36.3125C165.573 36.1875 164.49 36.0417 163.281 35.875C162.073 35.6667 160.781 35.4792 159.406 35.3125C158.073 35.1042 156.802 34.9167 155.594 34.75C154.385 34.5417 153.302 34.375 152.344 34.25C151.385 34.125 150.656 34.0208 150.156 33.9375C149.906 33.8958 149.448 33.8542 148.781 33.8125C148.115 33.7292 147.406 33.6667 146.656 33.625C145.906 33.5417 145.198 33.4792 144.531 33.4375C143.865 33.3958 143.385 33.375 143.094 33.375C142.802 33.2917 142.615 33.1458 142.531 32.9375C142.49 32.6875 142.469 32.4375 142.469 32.1875C142.469 31.8125 142.531 31.6042 142.656 31.5625C142.781 31.4792 143.115 31.375 143.656 31.25C143.865 31.125 144.385 30.9375 145.219 30.6875C146.094 30.4375 147.01 30.1667 147.969 29.875C148.969 29.5417 149.885 29.25 150.719 29C151.594 28.7083 152.156 28.5208 152.406 28.4375C153.031 28.2292 153.802 27.9583 154.719 27.625C155.677 27.25 156.656 26.8333 157.656 26.375C158.656 25.875 159.656 25.3542 160.656 24.8125C161.656 24.2292 162.552 23.6042 163.344 22.9375C164.177 22.2708 164.844 21.5833 165.344 20.875C165.844 20.1667 166.094 19.4167 166.094 18.625C166.094 17.5833 166.031 16.5625 165.906 15.5625C165.781 14.5625 165.635 13.5625 165.469 12.5625C165.302 11.5208 165.156 10.5 165.031 9.5C164.906 8.5 164.844 7.5 164.844 6.5C164.844 6.08333 164.885 5.6875 164.969 5.3125C165.052 4.9375 165.406 4.64583 166.031 4.4375C166.823 4.9375 167.406 5.5625 167.781 6.3125C168.156 7.02083 168.427 7.8125 168.594 8.6875C168.802 9.5625 168.969 10.4375 169.094 11.3125C169.26 12.1875 169.51 13 169.844 13.75L171.719 38.8125H175.281C175.115 39.1042 174.844 39.3542 174.469 39.5625C174.135 39.7292 173.781 39.875 173.406 40C173.031 40.1667 172.698 40.3333 172.406 40.5C172.156 40.7083 172.031 40.9583 172.031 41.25C172.031 43 172.073 44.75 172.156 46.5C172.281 48.2917 172.406 50.0625 172.531 51.8125C172.698 53.5625 172.844 55.3125 172.969 57.0625C173.094 58.8542 173.156 60.625 173.156 62.375C173.156 62.875 173.156 63.5 173.156 64.25C173.156 65 173.135 65.75 173.094 66.5C173.094 67.25 173.094 67.8958 173.094 68.4375C173.094 69.0208 173.094 69.3333 173.094 69.375C173.052 69.9583 173.01 70.6667 172.969 71.5C172.927 72.3333 172.823 73.2083 172.656 74.125C172.531 75.0833 172.344 76.0417 172.094 77C171.844 77.9583 171.531 78.8125 171.156 79.5625C170.781 80.3542 170.302 81.0208 169.719 81.5625C169.135 82.1042 168.448 82.3958 167.656 82.4375C165.865 81.1042 164.302 79.5208 162.969 77.6875C161.677 75.8542 160.594 73.8958 159.719 71.8125C158.885 69.7292 158.26 67.5625 157.844 65.3125C157.469 63.1042 157.281 60.9167 157.281 58.75ZM159.344 58.25C159.344 60.125 159.49 62.0208 159.781 63.9375C160.073 65.8958 160.531 67.8125 161.156 69.6875C161.823 71.5625 162.677 73.3125 163.719 74.9375C164.802 76.5625 166.115 78 167.656 79.25C167.698 79.25 167.74 79.25 167.781 79.25C167.823 79.25 167.865 79.25 167.906 79.25C168.323 79.25 168.677 79 168.969 78.5C169.26 78 169.49 77.3958 169.656 76.6875C169.865 76.0208 170.01 75.3542 170.094 74.6875C170.219 74.0625 170.323 73.5833 170.406 73.25C170.406 73 170.427 72.625 170.469 72.125C170.552 71.625 170.615 71.1042 170.656 70.5625C170.74 70.0208 170.802 69.5417 170.844 69.125C170.885 68.7083 170.906 68.4375 170.906 68.3125C170.906 68.2292 170.906 67.9167 170.906 67.375C170.906 66.8333 170.906 66.2083 170.906 65.5C170.948 64.7917 170.969 64.0625 170.969 63.3125C170.969 62.6042 170.969 62.0417 170.969 61.625C170.969 58.5833 170.927 55.5 170.844 52.375C170.802 49.2917 170.469 46.25 169.844 43.25C169.802 43.125 169.719 42.9167 169.594 42.625C169.469 42.3333 169.365 42.1667 169.281 42.125H169.219C169.177 42.125 169.135 42.1042 169.094 42.0625C169.052 42.0625 169.01 42.0625 168.969 42.0625C167.885 42.0625 166.885 42.3542 165.969 42.9375C165.094 43.5208 164.302 44.2708 163.594 45.1875C162.885 46.1458 162.26 47.2292 161.719 48.4375C161.219 49.6458 160.781 50.8333 160.406 52C160.073 53.2083 159.802 54.3542 159.594 55.4375C159.427 56.5625 159.344 57.5 159.344 58.25ZM152.906 32.1875C153.99 32.1875 155.073 32.25 156.156 32.375C157.24 32.5 158.302 32.6458 159.344 32.8125C160.427 32.9375 161.49 33.0625 162.531 33.1875C163.615 33.3125 164.698 33.375 165.781 33.375C166.281 33.375 166.677 33.3542 166.969 33.3125C167.26 33.2708 167.656 33.1042 168.156 32.8125C168.156 32.6875 168.156 32.4375 168.156 32.0625C168.198 31.6458 168.219 31.375 168.219 31.25C168.219 31 168.198 30.6875 168.156 30.3125C168.156 29.8958 168.156 29.6458 168.156 29.5625C168.115 29.1042 168.031 28.5417 167.906 27.875C167.823 27.2083 167.719 26.5625 167.594 25.9375C167.469 25.2708 167.365 24.7083 167.281 24.25C167.198 23.7917 167.135 23.5625 167.094 23.5625H166.031C163.948 25.0208 161.802 26.3958 159.594 27.6875C157.427 28.9375 155.198 30.125 152.906 31.25V32.1875Z" fill="black"/>
<path d="M206.406 24.6875C206.281 24.6875 206.031 24.6875 205.656 24.6875C205.323 24.6875 204.948 24.6875 204.531 24.6875C204.115 24.6875 203.719 24.6875 203.344 24.6875C202.969 24.6875 202.719 24.6875 202.594 24.6875C202.094 24.6042 201.781 24.5 201.656 24.375C201.531 24.2083 201.469 23.9583 201.469 23.625C201.469 23.2917 201.677 22.9583 202.094 22.625C202.51 22.2917 202.99 21.9792 203.531 21.6875C204.115 21.3542 204.677 21.0417 205.219 20.75C205.76 20.4167 206.156 20.1042 206.406 19.8125V19.125C206.406 18.8333 206.406 18.5208 206.406 18.1875C206.448 17.8125 206.469 17.4792 206.469 17.1875V14.5C206.469 13.875 206.427 13.2708 206.344 12.6875C206.302 12.1042 206.24 11.5 206.156 10.875C206.115 10.4583 206.052 10 205.969 9.5V9.8125C205.927 10.0208 205.844 10.1875 205.719 10.3125C205.594 10.3958 205.427 10.4583 205.219 10.5C205.052 10.5417 204.844 10.5625 204.594 10.5625C204.094 10.5625 203.635 10.3958 203.219 10.0625C202.802 9.6875 202.594 9.1875 202.594 8.5625C202.594 7.72917 202.969 6.95833 203.719 6.25C204.51 5.54167 205.49 4.89583 206.656 4.3125C207.865 3.6875 209.198 3.14583 210.656 2.6875C212.156 2.22917 213.615 1.85417 215.031 1.5625C216.448 1.22917 217.781 1 219.031 0.875C220.281 0.708333 221.26 0.625 221.969 0.625H222.781C223.156 0.625 223.552 0.645833 223.969 0.6875C224.427 0.6875 224.844 0.6875 225.219 0.6875H226.031C227.531 1.14583 228.281 2.10417 228.281 3.5625V4.1875C228.281 4.47917 228.26 4.77083 228.219 5.0625C228.177 5.35417 228.094 5.625 227.969 5.875C227.885 6.08333 227.719 6.1875 227.469 6.1875C227.385 6.1875 227.302 6.1875 227.219 6.1875C227.177 6.14583 227.135 6.125 227.094 6.125C226.969 5.625 226.823 5.14583 226.656 4.6875C226.49 4.3125 226.302 3.95833 226.094 3.625C225.927 3.25 225.74 2.97917 225.531 2.8125H224.906C224.615 2.8125 224.302 2.8125 223.969 2.8125C223.677 2.77083 223.385 2.75 223.094 2.75H222.469C221.594 2.75 220.469 2.8125 219.094 2.9375C217.76 3.0625 216.406 3.3125 215.031 3.6875C213.698 4.0625 212.469 4.58333 211.344 5.25C210.219 5.91667 209.469 6.77083 209.094 7.8125V8.6875C209.094 9.10417 209.094 9.5625 209.094 10.0625C209.094 10.5625 209.094 11.0208 209.094 11.4375V12.375C209.094 13.7083 209.094 15.0417 209.094 16.375C209.094 17.7083 209.281 19.0208 209.656 20.3125C209.74 20.3125 209.885 20.3333 210.094 20.375C210.302 20.375 210.427 20.375 210.469 20.375C211.594 20.375 212.719 20.25 213.844 20C214.969 19.75 216.073 19.4792 217.156 19.1875C218.281 18.8958 219.406 18.6458 220.531 18.4375C221.656 18.1875 222.802 18.0625 223.969 18.0625C224.135 18.0625 224.427 18.0417 224.844 18C225.26 17.9583 225.677 17.9792 226.094 18.0625C226.552 18.1042 226.948 18.2083 227.281 18.375C227.656 18.5417 227.844 18.8333 227.844 19.25C227.844 19.2917 227.802 19.375 227.719 19.5C227.677 19.625 227.656 19.7292 227.656 19.8125C227.406 19.8125 226.99 19.8333 226.406 19.875C225.865 19.9167 225.281 19.9583 224.656 20C224.031 20.0417 223.427 20.1042 222.844 20.1875C222.302 20.2292 221.906 20.2708 221.656 20.3125C221.531 20.3542 221.177 20.4375 220.594 20.5625C220.01 20.6875 219.365 20.8542 218.656 21.0625C217.99 21.2292 217.323 21.3958 216.656 21.5625C215.99 21.7292 215.469 21.8542 215.094 21.9375C214.885 22.0208 214.531 22.1458 214.031 22.3125C213.573 22.4375 213.073 22.5833 212.531 22.75C212.031 22.9167 211.552 23.0833 211.094 23.25C210.635 23.4167 210.344 23.5208 210.219 23.5625C210.177 23.6042 210.094 23.6875 209.969 23.8125L209.656 24.125V24.5625C209.656 24.7708 209.656 25 209.656 25.25C209.656 25.4583 209.656 25.6667 209.656 25.875V26.3125C209.656 27.1042 209.656 27.9792 209.656 28.9375C209.656 29.8542 209.698 30.7917 209.781 31.75C209.906 32.6667 210.073 33.5625 210.281 34.4375C210.531 35.2708 210.885 36.0208 211.344 36.6875C211.344 36.6875 211.427 36.75 211.594 36.875C211.76 37 211.927 37.125 212.094 37.25C212.302 37.3333 212.49 37.4375 212.656 37.5625C212.823 37.6875 212.927 37.7708 212.969 37.8125V38.0625C212.969 38.1458 212.969 38.2292 212.969 38.3125C213.01 38.3542 213.031 38.4167 213.031 38.5C213.031 39.0833 212.927 39.4792 212.719 39.6875C212.51 39.8958 212.115 40 211.531 40C210.823 40 210.24 39.7083 209.781 39.125C209.323 38.5 208.927 37.7292 208.594 36.8125C208.302 35.8542 208.073 34.7917 207.906 33.625C207.781 32.4167 207.635 31.25 207.469 30.125C207.344 29 207.198 27.9583 207.031 27C206.906 26 206.698 25.2292 206.406 24.6875Z" fill="black"/>
<path d="M232.031 37.8125C232.448 36.1458 232.74 34.6458 232.906 33.3125C233.115 31.9375 233.24 30.6042 233.281 29.3125C233.365 28.0208 233.385 26.6667 233.344 25.25C233.344 23.8333 233.344 22.2292 233.344 20.4375C232.677 20.4375 232.177 20.4792 231.844 20.5625C231.552 20.6458 231.344 20.75 231.219 20.875C231.094 20.9583 231.01 21.0625 230.969 21.1875C230.927 21.3125 230.844 21.4375 230.719 21.5625C230.635 21.6458 230.448 21.7292 230.156 21.8125C229.865 21.8958 229.406 21.9375 228.781 21.9375C228.406 21.9375 228.135 21.7917 227.969 21.5C227.802 21.2083 227.719 20.875 227.719 20.5C227.719 20.1667 227.948 19.8125 228.406 19.4375C228.823 19.0625 229.323 18.6875 229.906 18.3125C230.531 17.9375 231.156 17.625 231.781 17.375C232.448 17.125 233.01 17 233.469 17C233.635 17 233.865 17.0833 234.156 17.25C234.49 17.375 234.802 17.5625 235.094 17.8125C235.385 18.0208 235.615 18.25 235.781 18.5C235.99 18.75 236.094 19 236.094 19.25V27.9375C236.51 27.3125 237.177 26.4583 238.094 25.375C239.01 24.2917 240.031 23.2292 241.156 22.1875C242.281 21.1042 243.427 20.1667 244.594 19.375C245.76 18.5833 246.802 18.1875 247.719 18.1875C248.969 18.1875 249.844 18.6042 250.344 19.4375C250.844 20.2292 251.094 21.2292 251.094 22.4375C250.594 22.4375 250.198 22.3542 249.906 22.1875C249.615 22.0208 249.344 21.8333 249.094 21.625C248.885 21.4167 248.656 21.25 248.406 21.125C248.156 20.9583 247.823 20.875 247.406 20.875C246.073 21.125 244.823 21.7917 243.656 22.875C242.49 23.9583 241.406 25.2292 240.406 26.6875C239.448 28.1458 238.573 29.6875 237.781 31.3125C237.031 32.9375 236.365 34.4167 235.781 35.75C235.198 37.0833 234.719 38.1667 234.344 39C234.01 39.8333 233.802 40.1667 233.719 40C233.302 40 232.906 39.8125 232.531 39.4375C232.198 39.0208 232.031 38.5417 232.031 38V37.8125Z" fill="black"/>
<path d="M248.969 68.3125C248.719 66.7292 248.51 65.0625 248.344 63.3125C248.177 61.5625 248.031 59.5417 247.906 57.25C247.906 56.875 247.927 56.25 247.969 55.375C247.969 54.5417 248.01 53.5833 248.094 52.5C248.177 51.4583 248.302 50.3542 248.469 49.1875C248.635 48.0625 248.844 46.9792 249.094 45.9375C249.302 44.9375 249.573 44.0417 249.906 43.25C250.24 42.5 250.656 41.9583 251.156 41.625V42.125C251.156 43.375 251.073 44.6042 250.906 45.8125C250.698 47.0208 250.51 48.2292 250.344 49.4375C250.135 50.6875 249.948 51.9375 249.781 53.1875C249.573 54.4375 249.469 55.6875 249.469 56.9375C249.469 57.4375 249.51 58.1458 249.594 59.0625C249.635 60.0208 249.719 61.0625 249.844 62.1875C249.969 63.3125 250.156 64.4583 250.406 65.625C250.656 66.8333 250.99 67.9167 251.406 68.875C251.823 69.8333 252.323 70.6042 252.906 71.1875C253.49 71.8125 254.177 72.125 254.969 72.125C256.052 72.125 257.135 71.7708 258.219 71.0625C259.344 70.3542 260.406 69.4167 261.406 68.25C262.448 67.125 263.406 65.8333 264.281 64.375C265.156 62.9583 265.969 61.5208 266.719 60.0625C267.469 58.6042 268.094 57.2083 268.594 55.875C269.094 54.5833 269.469 53.4583 269.719 52.5C269.969 51.125 270.219 49.6667 270.469 48.125C270.719 46.625 270.948 45.0625 271.156 43.4375C271.406 41.8542 271.594 40.2708 271.719 38.6875C271.885 37.1042 271.969 35.5208 271.969 33.9375C271.969 33.8958 271.969 33.7708 271.969 33.5625C271.969 33.3542 271.948 33.1458 271.906 32.9375C271.906 32.6875 271.906 32.4583 271.906 32.25C271.906 32.0417 271.906 31.8958 271.906 31.8125C271.323 32.4375 270.698 33.1458 270.031 33.9375C269.406 34.6875 268.719 35.3958 267.969 36.0625C267.219 36.7292 266.406 37.2917 265.531 37.75C264.698 38.2083 263.781 38.4375 262.781 38.4375C261.99 38.4375 261.302 38.1875 260.719 37.6875C260.177 37.1875 259.719 36.5833 259.344 35.875C259.01 35.125 258.74 34.3333 258.531 33.5C258.365 32.6667 258.281 31.9167 258.281 31.25C258.24 30.875 258.198 30.2083 258.156 29.25C258.115 28.25 258.052 27.2083 257.969 26.125C257.927 25 257.865 23.9583 257.781 23C257.74 22 257.719 21.2917 257.719 20.875L257.156 20.3125C256.865 20.4792 256.49 20.7292 256.031 21.0625C255.573 21.3958 255.073 21.7083 254.531 22C254.031 22.2917 253.531 22.5625 253.031 22.8125C252.531 23.0208 252.094 23.125 251.719 23.125C251.219 23.125 250.823 22.9583 250.531 22.625C250.198 22.25 250.031 21.8542 250.031 21.4375C250.031 21.2292 250.24 20.9375 250.656 20.5625C251.031 20.1875 251.531 19.8125 252.156 19.4375C252.74 19.0208 253.406 18.6042 254.156 18.1875C254.948 17.7708 255.698 17.3958 256.406 17.0625C257.115 16.7292 257.76 16.4583 258.344 16.25C258.927 16 259.344 15.875 259.594 15.875C259.76 15.875 260.031 15.8958 260.406 15.9375C260.781 15.9792 260.969 16.1667 260.969 16.5V31.25C260.969 31.5 261.01 31.875 261.094 32.375C261.177 32.8333 261.302 33.3125 261.469 33.8125C261.635 34.3125 261.865 34.75 262.156 35.125C262.448 35.4583 262.781 35.625 263.156 35.625C263.365 35.625 263.635 35.5625 263.969 35.4375C264.302 35.3125 264.615 35.1667 264.906 35C265.24 34.8333 265.531 34.6667 265.781 34.5C266.031 34.2917 266.24 34.1042 266.406 33.9375C267.823 32.6875 269.115 31.2917 270.281 29.75C271.49 28.2083 272.385 26.5208 272.969 24.6875C273.01 24.5625 273.073 24.2917 273.156 23.875C273.281 23.4167 273.385 22.9375 273.469 22.4375C273.594 21.8958 273.719 21.3958 273.844 20.9375C273.969 20.4375 274.031 20.0625 274.031 19.8125C274.073 19.5208 274.094 19.1875 274.094 18.8125C274.135 18.4375 274.198 18.0833 274.281 17.75C274.365 17.375 274.51 17.0625 274.719 16.8125C274.927 16.5625 275.26 16.4375 275.719 16.4375C276.344 16.4375 276.677 16.625 276.719 17C276.802 17.375 276.844 17.8125 276.844 18.3125C276.844 18.8542 276.802 19.3958 276.719 19.9375C276.635 20.4792 276.531 21.0208 276.406 21.5625C276.323 22.0625 276.26 22.5833 276.219 23.125C276.177 23.625 276.198 24.1458 276.281 24.6875C275.823 32.5208 274.844 39.5208 273.344 45.6875C271.885 51.8542 270.135 57.0417 268.094 61.25C266.094 65.5 263.969 68.7083 261.719 70.875C259.51 73.0417 257.427 74.0208 255.469 73.8125C254.76 73.8125 254.052 73.6458 253.344 73.3125C252.677 73.0208 252.052 72.6042 251.469 72.0625C250.885 71.5208 250.385 70.9167 249.969 70.25C249.51 69.625 249.177 68.9792 248.969 68.3125Z" fill="black"/>
<path d="M18.3591 66.3451H23.9391V67.3171H18.3591V66.3451Z" fill="black"/>
<path d="M35.8456 57.9931V65.1331H43.5856V66.1531H35.8456V73.9531H34.6096V56.9731H44.7856V57.9931H35.8456Z" fill="black"/>
<path d="M48.7947 62.0131V73.9531H47.6547V62.0131H48.7947ZM49.2867 57.8971C49.2867 58.0411 49.2547 58.1771 49.1907 58.3051C49.1347 58.4251 49.0587 58.5331 48.9627 58.6291C48.8667 58.7251 48.7547 58.8011 48.6267 58.8571C48.4987 58.9131 48.3627 58.9411 48.2187 58.9411C48.0747 58.9411 47.9387 58.9131 47.8107 58.8571C47.6827 58.8011 47.5707 58.7251 47.4747 58.6291C47.3787 58.5331 47.3027 58.4251 47.2467 58.3051C47.1907 58.1771 47.1627 58.0411 47.1627 57.8971C47.1627 57.7531 47.1907 57.6171 47.2467 57.4891C47.3027 57.3531 47.3787 57.2371 47.4747 57.1411C47.5707 57.0451 47.6827 56.9691 47.8107 56.9131C47.9387 56.8571 48.0747 56.8291 48.2187 56.8291C48.3627 56.8291 48.4987 56.8571 48.6267 56.9131C48.7547 56.9691 48.8667 57.0451 48.9627 57.1411C49.0587 57.2371 49.1347 57.3531 49.1907 57.4891C49.2547 57.6171 49.2867 57.7531 49.2867 57.8971Z" fill="black"/>
<path d="M53.9584 64.1011C54.5104 63.4131 55.1464 62.8611 55.8664 62.4451C56.5944 62.0291 57.4024 61.8211 58.2904 61.8211C58.9464 61.8211 59.5224 61.9251 60.0184 62.1331C60.5224 62.3411 60.9384 62.6411 61.2664 63.0331C61.5944 63.4251 61.8424 63.8971 62.0104 64.4491C62.1784 65.0011 62.2624 65.6251 62.2624 66.3211V73.9531H61.1104V66.3211C61.1104 65.2011 60.8544 64.3251 60.3424 63.6931C59.8304 63.0531 59.0504 62.7331 58.0024 62.7331C57.2264 62.7331 56.4984 62.9331 55.8184 63.3331C55.1464 63.7251 54.5464 64.2731 54.0184 64.9771V73.9531H52.8664V62.0131H53.5024C53.7024 62.0131 53.8184 62.1131 53.8504 62.3131L53.9584 64.1011Z" fill="black"/>
<path d="M74.4378 66.7771C74.4378 66.1371 74.3458 65.5651 74.1618 65.0611C73.9858 64.5491 73.7337 64.1171 73.4057 63.7651C73.0777 63.4131 72.6858 63.1451 72.2298 62.9611C71.7818 62.7691 71.2858 62.6731 70.7418 62.6731C70.1258 62.6731 69.5737 62.7691 69.0857 62.9611C68.5977 63.1531 68.1738 63.4291 67.8138 63.7891C67.4618 64.1491 67.1778 64.5811 66.9618 65.0851C66.7458 65.5891 66.6017 66.1531 66.5297 66.7771H74.4378ZM66.4697 67.5091V67.7371C66.4697 68.6331 66.5738 69.4211 66.7818 70.1011C66.9898 70.7811 67.2857 71.3531 67.6697 71.8171C68.0537 72.2731 68.5178 72.6171 69.0618 72.8491C69.6058 73.0811 70.2137 73.1971 70.8857 73.1971C71.4857 73.1971 72.0057 73.1331 72.4457 73.0051C72.8857 72.8691 73.2538 72.7211 73.5498 72.5611C73.8538 72.3931 74.0938 72.2451 74.2698 72.1171C74.4458 71.9811 74.5737 71.9131 74.6537 71.9131C74.7577 71.9131 74.8378 71.9531 74.8938 72.0331L75.2057 72.4171C75.0137 72.6571 74.7578 72.8811 74.4378 73.0891C74.1258 73.2971 73.7738 73.4771 73.3818 73.6291C72.9978 73.7731 72.5818 73.8891 72.1338 73.9771C71.6938 74.0651 71.2498 74.1091 70.8018 74.1091C69.9858 74.1091 69.2417 73.9691 68.5697 73.6891C67.8977 73.4011 67.3218 72.9851 66.8418 72.4411C66.3618 71.8971 65.9898 71.2331 65.7258 70.4491C65.4698 69.6571 65.3418 68.7531 65.3418 67.7371C65.3418 66.8811 65.4618 66.0931 65.7018 65.3731C65.9498 64.6451 66.3018 64.0211 66.7578 63.5011C67.2218 62.9731 67.7858 62.5611 68.4498 62.2651C69.1218 61.9691 69.8818 61.8211 70.7298 61.8211C71.4018 61.8211 72.0258 61.9371 72.6018 62.1691C73.1778 62.4011 73.6778 62.7411 74.1018 63.1891C74.5258 63.6291 74.8577 64.1731 75.0977 64.8211C75.3457 65.4691 75.4697 66.2131 75.4697 67.0531C75.4697 67.2291 75.4458 67.3491 75.3978 67.4131C75.3498 67.4771 75.2698 67.5091 75.1578 67.5091H66.4697Z" fill="black"/>
<path d="M93.9921 67.7851L90.5361 59.2051C90.4161 58.9251 90.3001 58.5891 90.1881 58.1971C90.1401 58.3891 90.0881 58.5731 90.0321 58.7491C89.9761 58.9171 89.9161 59.0731 89.8521 59.2171L86.3961 67.7851H93.9921ZM97.7481 73.9531H96.8001C96.6881 73.9531 96.5961 73.9251 96.5241 73.8691C96.4521 73.8051 96.3961 73.7251 96.3561 73.6291L94.3641 68.6971H86.0241L84.0321 73.6291C84.0001 73.7171 83.9441 73.7931 83.8641 73.8571C83.7841 73.9211 83.6881 73.9531 83.5761 73.9531H82.6401L89.5881 56.9731H90.8001L97.7481 73.9531Z" fill="black"/>
<path d="M101.021 64.8931C101.205 64.4051 101.413 63.9731 101.645 63.5971C101.885 63.2131 102.157 62.8891 102.461 62.6251C102.773 62.3611 103.117 62.1611 103.493 62.0251C103.877 61.8811 104.301 61.8091 104.765 61.8091C105.013 61.8091 105.257 61.8331 105.497 61.8811C105.737 61.9211 105.949 61.9971 106.133 62.1091L106.037 62.9011C105.997 63.0291 105.921 63.0931 105.809 63.0931C105.713 63.0931 105.565 63.0651 105.365 63.0091C105.173 62.9531 104.917 62.9251 104.597 62.9251C104.133 62.9251 103.721 62.9971 103.361 63.1411C103.009 63.2771 102.689 63.4851 102.401 63.7651C102.121 64.0451 101.873 64.3931 101.657 64.8091C101.449 65.2171 101.257 65.6891 101.081 66.2251V73.9531H99.9289V62.0131H100.541C100.677 62.0131 100.773 62.0411 100.829 62.0971C100.885 62.1531 100.921 62.2491 100.937 62.3851L101.021 64.8931Z" fill="black"/>
<path d="M111.677 74.1451C110.869 74.1451 110.237 73.9211 109.781 73.4731C109.333 73.0251 109.109 72.3331 109.109 71.3971V63.2371H107.393C107.305 63.2371 107.233 63.2131 107.177 63.1651C107.121 63.1171 107.093 63.0491 107.093 62.9611V62.5171L109.133 62.3731L109.421 58.1011C109.437 58.0291 109.469 57.9651 109.517 57.9091C109.565 57.8531 109.633 57.8251 109.721 57.8251H110.261V62.3851H114.029V63.2371H110.261V71.3371C110.261 71.6651 110.301 71.9491 110.381 72.1891C110.469 72.4211 110.585 72.6131 110.729 72.7651C110.881 72.9171 111.057 73.0291 111.257 73.1011C111.457 73.1731 111.673 73.2091 111.905 73.2091C112.193 73.2091 112.441 73.1691 112.649 73.0891C112.857 73.0011 113.037 72.9091 113.189 72.8131C113.341 72.7091 113.465 72.6171 113.561 72.5371C113.657 72.4491 113.733 72.4051 113.789 72.4051C113.853 72.4051 113.917 72.4451 113.981 72.5251L114.293 73.0291C113.989 73.3651 113.601 73.6371 113.129 73.8451C112.665 74.0451 112.181 74.1451 111.677 74.1451Z" fill="black"/>
<path d="M122.843 66.3451H128.424V67.3171H122.843V66.3451Z" fill="black"/>
</svg>
